<svg aria-hidden="true" style="width:0;height:0;position:absolute;overflow:hidden" xmlns="http://www.w3.org/2000/svg"><defs><symbol id="button-arrow" viewBox="0 0 32 32"><path fill="none" stroke-linejoin="round" stroke-linecap="round" stroke-width="6.4" d="M5.173 3.2 19.342 16 5.173 28.8"/></symbol><symbol id="bubble2" viewBox="0 0 485 480"><path stroke="#d41443" stroke-width="8" stroke-linejoin="round" d="M241.674 22.75c-109.18 1.754-205.48 62.597-225.926 148.906-23.357 98.6 61.082 193.276 188.505 211.406.027.152-.018.377-.03.594l-.731.031-99.292 92.344 204.003-95.844-2.01.063 1.31-1 2.923-.094-2.223 1.031 2.802-.093v-.969h.03c88.273-19.445 150.16-72.131 166.704-141.969 23.367-98.64-61.177-193.362-188.688-211.437a302.865 302.865 0 0 0-47.377-2.969z"/></symbol></defs></svg>